<?xml version="1.0" standalone="no"?>
<!DOCTYPE svg PUBLIC "-//W3C//DTD SVG 1.1//EN" "http://www.w3.org/Graphics/SVG/1.1/DTD/svg11.dtd" >
<svg xmlns="http://www.w3.org/2000/svg" xmlns:xlink="http://www.w3.org/1999/xlink" version="1.1">
<metadata>
Created by FontForge 20161003 at Sun Nov 25 18:15:17 2018
 By www-data
Copyright (c) BPG InfoTech, 2008. All rights reserved.
</metadata>
<defs>
<font id="bpg_nino_mkhedruli_book" horiz-adv-x="409" >
  <font-face 
    font-family="bpg_nino_mkhedruli_book"
    font-weight="400"
    font-style="italic"
    font-stretch="normal"
    units-per-em="1050"
    panose-1="0 0 5 6 0 0 0 2 0 4"
    ascent="840"
    descent="-210"
    x-height="534"
    cap-height="717"
    bbox="-49 -212 1185 838"
    underline-thickness="25"
    underline-position="-75"
    slope="-25"
    unicode-range="U+0020-2122"
  />
<missing-glyph horiz-adv-x="890" 
d="M173 70v651h587v-651h-587zM158 50h616v691h-616v-691z" />
    <glyph glyph-name=".notdef" horiz-adv-x="890" 
d="M173 70v651h587v-651h-587zM158 50h616v691h-616v-691z" />
    <glyph glyph-name=".null" horiz-adv-x="0" 
 />
    <glyph glyph-name="nonmarkingreturn" horiz-adv-x="330" 
 />
    <glyph glyph-name="space" unicode=" " horiz-adv-x="205" 
 />
    <glyph glyph-name="exclam" unicode="!" horiz-adv-x="226" 
d="M95 279h54v518h-54v-518zM111 77h1q20 0 32.5 14.5t12.5 34.5q0 21 -12.5 35t-31.5 14q-21 0 -33 -14.5t-12 -37.5q0 -19 12.5 -32.5t30.5 -13.5z" />
    <glyph glyph-name="quotedbl" unicode="&#x22;" horiz-adv-x="317" 
d="M126 836h-63l15 -233h33zM254 836h-63l15 -233h33z" />
    <glyph glyph-name="numbersign" unicode="#" horiz-adv-x="881" 
d="M658 743q-55 0 -95 -50t-40 -136q0 -83 37.5 -131.5t97.5 -48.5q54 0 94 46.5t40 138.5q0 82 -36 131.5t-98 49.5zM657 707h1q48 0 72 -44.5t24 -102.5q0 -68 -27.5 -107.5t-68.5 -39.5q-39 0 -68 39.5t-29 105.5q0 61 25.5 105t70.5 44zM548 290h221v41h-221v-41zM89 77
h36v616l299 -616h43v682h-33v-617l-297 617h-48v-682z" />
    <glyph glyph-name="dollar" unicode="$" horiz-adv-x="556" 
d="M243 -35h44v110q79 12 122 62t43 108q0 67 -41.5 110t-125.5 78q-78 33 -109.5 62.5t-31.5 74.5q0 44 32.5 77.5t100.5 33.5q72 0 132 -40l23 40q-60 39 -135 41v113h-44v-113q-72 -9 -115 -53t-43 -106q0 -61 41 -101t135 -78q65 -26 98 -60t33 -83q0 -54 -42 -89.5
t-108 -35.5q-85 0 -146 49l-23 -40q61 -50 160 -50v-110z" />
    <glyph glyph-name="percent" unicode="%" horiz-adv-x="809" 
d="M190 784h-1q-65 0 -111.5 -55.5t-46.5 -159.5q2 -101 45 -152.5t105 -51.5q69 0 112.5 56t43.5 161q0 99 -39.5 150.5t-107.5 51.5zM184 749h1q107 0 107 -172q0 -84 -27.5 -130.5t-80.5 -46.5q-48 0 -78 43.5t-30 117.5q0 87 29 137.5t79 50.5zM170 76h43l423 708h-43z
M630 504h-1q-65 0 -111 -55.5t-46 -159.5q1 -101 43.5 -153t105.5 -52q69 0 112.5 56t43.5 161q0 100 -39.5 151.5t-107.5 51.5zM624 468h1q107 0 107 -171q0 -84 -27.5 -131t-80.5 -47q-47 0 -77.5 44t-30.5 118q0 87 29 137t79 50z" />
    <glyph glyph-name="ampersand" unicode="&#x26;" horiz-adv-x="619" 
d="M563 90h66q-59 54 -122 116q66 69 100 255h-48q-26 -157 -81 -228q-101 101 -224 238v4q97 43 138.5 89t41.5 105q0 62 -41 102t-104 40q-79 0 -125.5 -51t-46.5 -120q0 -72 66 -152v-3q-152 -74 -152 -209q0 -87 61.5 -143t150.5 -56q65 0 120.5 21t114.5 73
q19 -17 46.5 -44t38.5 -37zM256 118h-1q-73 0 -123 46t-50 120q0 63 38 105t87 66q124 -138 241 -255q-80 -82 -192 -82zM280 771h1q52 0 78.5 -32t26.5 -76q0 -51 -39.5 -86.5t-118.5 -73.5q-62 77 -62 142q0 52 30.5 89t83.5 37z" />
    <glyph glyph-name="quotesingle" unicode="'" horiz-adv-x="189" 
d="M126 836h-63l15 -233h33z" />
    <glyph glyph-name="parenleft" unicode="(" horiz-adv-x="284" 
d="M278 786h-49q-73 -98 -117 -210.5t-44 -267.5q0 -267 161 -472h49q-78 107 -119.5 216.5t-41.5 254.5q0 151 41 264t120 215z" />
    <glyph glyph-name="parenright" unicode=")" horiz-adv-x="284" 
d="M5 -162h49q73 97 117 208.5t44 266.5t-44 267t-117 207h-49q79 -104 120 -215t41 -258q0 -148 -42 -260.5t-119 -215.5z" />
    <glyph glyph-name="asterisk" unicode="*" horiz-adv-x="573" 
d="M301 571l-6 2l15 140v7q0 30 -23 30q-24 0 -24 -30q0 -5 1 -7l14 -140l-6 -2l-89 108q-13 17 -20 17h-6q-10 0 -17 -6q-6 -8 -6 -15q0 -13 17 -27l108 -89l-2 -7l-140 15h-7q-29 0 -29 -23q0 -24 29 -24q6 0 7 1l140 14l2 -6l-108 -89q-17 -14 -17 -27q0 -9 6 -15
q8 -6 15 -6q14 0 28 17l89 108l6 -2l-14 -140q-1 -2 -1 -7q0 -30 24 -30q23 0 23 29v8l-15 140l6 2l90 -108q11 -17 27 -17q8 0 15 6q6 6 6 17v5q0 9 -17 20l-108 89l2 6l140 -14q2 -1 7 -1q30 0 30 24q0 23 -31 23h-6l-140 -15l-2 7l108 89q17 11 17 20v5q0 10 -6 17
q-6 6 -17 6h-5q-9 0 -20 -17z" />
    <glyph glyph-name="plus" unicode="+" horiz-adv-x="626" 
d="M336 636h-46v-258h-248v-42h248v-259h46v259h248v42h-248v258z" />
    <glyph glyph-name="comma" unicode="," horiz-adv-x="257" 
d="M73 -83l17 -17q44 41 69 91.5t25 99.5q0 74 -55 74q-19 0 -33.5 -13t-14.5 -37q0 -18 13 -29t32 -11h5q2 0 5 1h3q3 -12 3 -24q0 -58 -69 -135z" />
    <glyph glyph-name="hyphen" unicode="-" horiz-adv-x="380" 
d="M329 355h-278v-40h278v40z" />
    <glyph glyph-name="period" unicode="." horiz-adv-x="272" 
d="M88 126q0 -20 14 -34.5t34 -14.5q19 0 33.5 14t14.5 35q0 20 -14 33.5t-34 13.5t-34 -14t-14 -33z" />
    <glyph glyph-name="slash" unicode="/" horiz-adv-x="273" 
d="M1 77h50l222 698h-54z" />
    <glyph glyph-name="zero" unicode="0" 
d="M383 466q0 176 -47 267t-125 91q-77 0 -131 -96.5t-54 -279.5q2 -181 51.5 -274.5t120.5 -93.5q88 0 136.5 98.5t48.5 287.5zM333 458q0 -156 -32.5 -244.5t-97.5 -88.5q-56 0 -91.5 85.5t-35.5 230.5v17q0 145 36 233.5t93 88.5q65 0 96.5 -85.5t31.5 -236.5z" />
    <glyph glyph-name="one" unicode="1" horiz-adv-x="338" 
d="M187 751v-657h48v717h-44l-96 -79l11 -47q10 8 38.5 31.5t42.5 34.5z" />
    <glyph glyph-name="two" unicode="2" 
d="M32 94h336v45h-271v3h-1l36 45q65 85 98 131.5t65.5 103t45 103t12.5 98.5q0 44 -13 86.5t-50.5 78.5t-93.5 36q-85 0 -146 -80l18 -43q63 76 120 76q33 0 56.5 -14.5t35.5 -40t17.5 -53.5t5.5 -60q0 -81 -44 -161.5t-176 -254.5l-51 -66v-33z" />
    <glyph glyph-name="three" unicode="3" 
d="M51 184l-17 -50q21 -21 57 -37.5t78 -16.5q92 0 140 64.5t48 150.5q0 69 -41 121t-98 67q52 26 84.5 72.5t32.5 99.5q0 68 -35.5 118.5t-111.5 50.5q-38 0 -74.5 -18t-58.5 -43l19 -47q54 62 110 62q52 0 76.5 -38t24.5 -91q0 -69 -40.5 -106t-90.5 -37h-46v-46h43
q63 0 109 -40.5t47 -126.5v-7q0 -23 -5.5 -47.5t-19 -51t-41.5 -43.5t-67 -17q-32 0 -68 18.5t-55 38.5z" />
    <glyph glyph-name="four" unicode="4" horiz-adv-x="426" 
d="M281 94h47v210h83v45h-83v462h-40l-273 -472v-35h266v-210zM281 349h-209v2h-1l182 317l28 77v-396z" />
    <glyph glyph-name="five" unicode="5" 
d="M343 763v48h-247l-31 -329q48 10 86 10q75 0 112.5 -51.5t37.5 -130.5q0 -77 -38 -130t-95 -53q-62 0 -118 54l-17 -48q53 -53 132 -53q77 0 130.5 68t53.5 173q0 69 -27.5 120t-64.5 74q-45 23 -96 23q-15 0 -48 -3l24 228h206z" />
    <glyph glyph-name="six" unicode="6" 
d="M385 333q0 102 -46.5 168.5t-124.5 66.5q-44 0 -79 -23.5t-57 -61.5q11 106 60.5 184.5t126.5 98.5q26 9 66 9l-1 49q-33 0 -63 -9q-92 -25 -150 -101q-93 -126 -93 -328q0 -149 53 -227.5t131 -78.5q55 0 96.5 39t61 95.5t19.5 118.5zM334 331q0 -87 -34 -146t-89 -59
q-66 0 -102 69t-36 174q0 60 43 106t90 46q56 0 92 -50.5t36 -139.5z" />
    <glyph glyph-name="seven" unicode="7" 
d="M377 811h-327v-46h277v-2l-244 -669h47l247 675v42z" />
    <glyph glyph-name="eight" unicode="8" 
d="M362 650q0 76 -41.5 125t-109.5 49q-71 0 -117 -53t-46 -134q0 -110 94 -161q-114 -68 -114 -200q0 -89 51 -142.5t126 -53.5q71 0 123.5 57t52.5 151q0 130 -117 186h1q97 61 97 176zM332 278q0 -63 -35 -108t-93 -45t-92.5 44.5t-34.5 106.5q0 1 0.5 4.5t0.5 5.5
q0 61 35 109t91 65q68 -21 98 -62.5t30 -119.5zM313 647q0 -59 -30 -97.5t-76 -57.5q-57 16 -84 51.5t-27 98.5v2q0 56 29.5 96.5t81.5 40.5q54 0 80 -41t26 -93z" />
    <glyph glyph-name="nine" unicode="9" 
d="M386 520q0 149 -48.5 226.5t-120.5 77.5q-81 0 -132 -77t-51 -179q0 -88 43 -154t119 -66q83 0 137 81q-14 -120 -64 -202q-53 -77 -118 -91q-27 -6 -49 -6q-8 0 -20 2v-52h10q27 0 73 11q29 7 64 30.5t60 53.5q41 52 69 140.5t28 204.5zM336 524q0 -50 -42.5 -90
t-91.5 -40q-53 0 -85.5 50t-32.5 126q0 85 34 147t90 62q64 0 96 -71t32 -184z" />
    <glyph glyph-name="colon" unicode=":" horiz-adv-x="272" 
d="M88 428q0 -20 14 -34.5t34 -14.5q19 0 33.5 14t14.5 35q0 20 -14 33.5t-34 13.5t-34 -14t-14 -33zM88 127q0 -20 14 -34.5t34 -14.5q19 0 33.5 14t14.5 35q0 20 -14 33.5t-34 13.5t-34 -14t-14 -33z" />
    <glyph glyph-name="semicolon" unicode=";" horiz-adv-x="257" 
d="M81 426q0 -20 14 -34.5t34 -14.5q19 0 33 14t14 35q0 20 -13.5 33.5t-33.5 13.5t-34 -14t-14 -33zM73 -84l17 -16q44 40 69 91t25 100q0 73 -55 73q-19 0 -33.5 -12.5t-14.5 -36.5q0 -18 13 -29t32 -11h5q7 0 8 1q3 -12 3 -25q0 -57 -69 -135z" />
    <glyph glyph-name="less" unicode="&#x3c;" horiz-adv-x="520" 
d="M68 299l409 -158v28l-387 152l387 151v28l-409 -158v-43z" />
    <glyph glyph-name="equal" unicode="=" horiz-adv-x="520" 
d="M477 295v27h-407v-27h407zM477 487v29h-407v-29h407z" />
    <glyph glyph-name="greater" unicode="&#x3e;" horiz-adv-x="520" 
d="M483 306v37l-415 156v-28l390 -147l-390 -155v-30z" />
    <glyph glyph-name="question" unicode="?" horiz-adv-x="424" 
d="M215 170q-20 0 -32 -12.5t-12 -30.5t12 -29t32 -11q19 0 29 11.5t10 28.5q0 19 -10 31t-29 12zM238 257v77q-1 2 -1 6q0 13 8 28t17 25.5t29 30.5q5 5 19 20.5t18 20t15.5 17.5t15 18t12 16.5t11 18t8 17t7 19t3 19.5t1.5 22q0 92 -44.5 145.5t-129.5 53.5
q-72 0 -123.5 -44.5t-51.5 -116.5q0 -53 32.5 -94.5t83.5 -41.5q42 0 64 22.5t22 61.5q0 28 -15 63h-21q5 -20 5 -42q0 -37 -13 -52t-42 -15q-33 0 -51 31.5t-18 66.5q0 52 39 87t89 35q67 0 98 -43.5t31 -116.5t-86 -151q-39 -38 -58 -67t-19 -60v-77h45z" />
    <glyph glyph-name="at" unicode="@" horiz-adv-x="804" 
d="M534 585l-24 -118q-10 -57 -58 -113.5t-105 -56.5q-45 0 -69 27t-24 67q0 89 60 148t144 59q46 0 76 -13zM571 123l-17 37q-69 -43 -175 -43q-122 0 -206 85.5t-84 217.5q0 158 97 254.5t240 96.5q134 0 211.5 -81.5t77.5 -210.5q0 -80 -37.5 -130.5t-85.5 -50.5h-3
q-48 0 -48 72q0 34 8 70l36 175q-54 23 -121 23q-105 0 -181 -71t-76 -175q0 -58 36.5 -96.5t83.5 -38.5q59 0 99 26.5t72 78.5h4q-1 -6 -1 -14q0 -45 23.5 -68t54.5 -23q72 0 128.5 62.5t56.5 165.5q0 140 -90.5 232t-238.5 92q-120 0 -211.5 -56t-137.5 -144.5t-46 -194.5
q0 -147 98.5 -242.5t237.5 -95.5q110 0 195 47z" />
    <glyph glyph-name="A" unicode="A" horiz-adv-x="544" 
d="M403 305h-255l-79 -225h-44l231 637h41l231 -637h-45zM163 344h227l-81 224q-14 36 -32 101h-1q-11 -41 -32 -99z" />
    <glyph glyph-name="B" unicode="B" horiz-adv-x="466" 
d="M75 80v629q54 14 128 14q110 0 162 -55q35 -39 35 -106q0 -47 -28.5 -85.5t-72.5 -55.5v-3q18 -3 37.5 -13.5t40.5 -29t34.5 -49t13.5 -68.5q0 -71 -44 -120q-59 -63 -198 -63q-26 0 -66 2.5t-42 2.5zM117 677v-241h100q65 0 103 35.5t38 88.5q0 125 -158 125
q-55 0 -83 -8zM117 398v-279q24 -5 80 -5q79 0 131.5 32.5t52.5 109.5q0 72 -50 107t-129 35h-85z" />
    <glyph glyph-name="C" unicode="C" horiz-adv-x="544" 
d="M501 143l13 -37q-60 -37 -179 -37q-80 0 -147 34.5t-111.5 110.5t-44.5 182q0 86 35.5 160t111.5 123.5t179 49.5q94 0 155 -32l-14 -39q-57 32 -139 32q-135 0 -209.5 -82.5t-74.5 -214.5q0 -123 72 -203.5t203 -80.5q90 0 150 34z" />
    <glyph glyph-name="D" unicode="D" horiz-adv-x="616" 
d="M75 80v629q89 14 172 14q185 0 267 -102q69 -82 69 -208q0 -137 -79 -232q-88 -106 -280 -106q-86 0 -149 5zM117 672v-553q34 -5 113 -5q156 0 233.5 83t77.5 216v3q0 122 -74.5 195.5t-223.5 73.5q-72 0 -126 -13z" />
    <glyph glyph-name="E" unicode="E" horiz-adv-x="435" 
d="M371 436v-39h-254v-278h283v-39h-325v637h311v-38h-269v-243h254z" />
    <glyph glyph-name="F" unicode="F" horiz-adv-x="434" 
d="M75 80v637h311v-38h-269v-250h246v-39h-246v-310h-42z" />
    <glyph glyph-name="G" unicode="G" horiz-adv-x="590" 
d="M537 395v-282q-99 -39 -193 -39q-141 0 -228 91q-39 40 -61.5 102t-22.5 133q0 58 20.5 114t59.5 104t104.5 77t148.5 29q92 0 153 -32l-14 -38q-60 31 -141 31q-136 0 -211.5 -81.5t-75.5 -205.5q0 -127 73.5 -206t202.5 -79q98 0 143 26v218h-148v38h190z" />
    <glyph glyph-name="H" unicode="H" horiz-adv-x="592" 
d="M75 717h42v-278h358v278h42v-637h-42v320h-358v-320h-42v637z" />
    <glyph glyph-name="I" unicode="I" horiz-adv-x="191" 
d="M75 717h42v-637h-42v637z" />
    <glyph glyph-name="J" unicode="J" horiz-adv-x="321" 
d="M212 301v416h41v-428q0 -220 -166 -220q-46 0 -82 18l10 38q28 -16 72 -16q63 0 94 42.5t31 149.5z" />
    <glyph glyph-name="K" unicode="K" horiz-adv-x="459" 
d="M75 80v637h42v-325h3q20 28 52 64l228 261h54l-242 -270l267 -367h-52l-244 337l-66 -73v-264h-42z" />
    <glyph glyph-name="L" unicode="L" horiz-adv-x="417" 
d="M75 80v637h42v-598h283v-39h-325z" />
    <glyph glyph-name="M" unicode="M" horiz-adv-x="719" 
d="M622 80l-18 301q-13 250 -13 286h-2q-30 -88 -86 -238l-132 -349h-32l-124 343q-57 156 -80 244h-3q-6 -208 -14 -295l-20 -292h-41l46 637h47l138 -379q42 -116 68 -203h2q26 87 71 202l144 380h49l41 -637h-41z" />
    <glyph glyph-name="N" unicode="N" horiz-adv-x="600" 
d="M116 80h-41v637h39l259 -392q86 -128 117 -186l2 2q-8 85 -8 248v328h42v-637h-38l-252 379q-102 159 -123 198l-3 -2q6 -72 6 -234v-341z" />
    <glyph glyph-name="O" unicode="O" horiz-adv-x="640" 
d="M318 69h-1q-123 0 -204 91.5t-81 230.5q0 148 83.5 243t207.5 95q126 0 205.5 -91t79.5 -230q0 -158 -85.5 -248.5t-204.5 -90.5zM318 107h1q112 0 179 83.5t67 212.5q0 114 -65 201t-179 87q-116 0 -180.5 -86.5t-64.5 -211.5q0 -118 66.5 -202t175.5 -84z" />
    <glyph glyph-name="P" unicode="P" horiz-adv-x="466" 
d="M75 80v631q62 12 136 12q112 0 165 -56q46 -46 46 -125q0 -83 -44 -130q-58 -70 -180 -70q-51 0 -81 10v-272h-42zM117 676v-283q32 -12 86 -12q85 0 131.5 41t46.5 115q0 77 -47 112.5t-124 35.5q-55 0 -93 -9z" />
    <glyph glyph-name="Q" unicode="Q" horiz-adv-x="640" 
d="M614 38l-12 -43q-133 31 -246 65q-27 9 -36 9q-124 5 -206 92t-82 229q0 150 83 244.5t209 94.5q124 0 204 -91.5t80 -229.5q0 -126 -55.5 -209t-150.5 -114v-3q182 -39 212 -44zM317 107h1q111 0 179 84t68 212q0 114 -64.5 201t-176.5 87q-118 0 -183 -87t-65 -213
q0 -117 66.5 -200.5t174.5 -83.5z" />
    <glyph glyph-name="R" unicode="R" horiz-adv-x="467" 
d="M75 80v629q53 14 139 14q115 0 168 -56q40 -42 40 -112q0 -61 -31.5 -103t-85.5 -62v-2q67 -26 90 -130q32 -144 47 -178h-44q-13 25 -39 154q-14 69 -45.5 102.5t-87.5 36.5h-109v-293h-42zM117 675v-264h110q70 0 112 37.5t42 99.5q0 72 -46 104.5t-121 32.5
q-65 0 -97 -10z" />
    <glyph glyph-name="S" unicode="S" horiz-adv-x="430" 
d="M39 117l16 38q64 -47 142 -47q69 0 109.5 37t40.5 96q0 55 -29.5 89t-100.5 60q-86 30 -123.5 71.5t-37.5 104.5q0 70 49.5 116.5t128.5 46.5q83 0 127 -32l-16 -39q-43 33 -113 33t-102.5 -36.5t-32.5 -82.5q0 -51 29.5 -82.5t99.5 -57.5q84 -30 122.5 -71t38.5 -115
q0 -73 -49.5 -125t-145.5 -52q-41 0 -84.5 13.5t-68.5 34.5z" />
    <glyph glyph-name="T" unicode="T" horiz-adv-x="434" 
d="M196 80v599h-213v38h468v-38h-213v-599h-42z" />
    <glyph glyph-name="U" unicode="U" horiz-adv-x="588" 
d="M75 717h42v-367q0 -123 47.5 -182.5t124.5 -59.5q84 0 133 60t49 182v367h42v-363q0 -145 -63.5 -215t-162.5 -70q-93 0 -152.5 67.5t-59.5 212.5v368z" />
    <glyph glyph-name="V" unicode="V" horiz-adv-x="463" 
d="M243 80h-41l-209 637h44l113 -350q71 -225 75 -239h1q18 60 83 238l127 351h45z" />
    <glyph glyph-name="W" unicode="W" horiz-adv-x="750" 
d="M213 80h-41l-162 637h42l91 -365q9 -40 27.5 -113t24.5 -101h1q8 40 58 214l105 365h41l93 -364q37 -144 49 -215h2q9 41 58 213l106 366h43l-190 -637h-41l-92 366q-36 137 -49 218h-2q-8 -47 -57 -216z" />
    <glyph glyph-name="X" unicode="X" horiz-adv-x="510" 
d="M483 80h-49l-96 151q-16 26 -35 56.5t-31 49.5t-21 34h-2q-25 -48 -83 -141l-90 -150h-49l201 323l-193 314h50l102 -171q15 -25 36 -61t30 -51h2q11 19 35.5 57.5t33.5 53.5l109 172h50l-206 -311z" />
    <glyph glyph-name="Y" unicode="Y" horiz-adv-x="460" 
d="M252 80h-41v273l-201 364h47l107 -198q48 -85 70 -133h1q24 52 72 133l111 198h48l-214 -366v-271z" />
    <glyph glyph-name="Z" unicode="Z" horiz-adv-x="514" 
d="M31 80v32l392 564v3h-359v38h415v-32l-393 -563v-3h398v-39h-453z" />
    <glyph glyph-name="bracketleft" unicode="[" horiz-adv-x="284" 
d="M94 -169h195v39h-147v885h147v40h-195v-964z" />
    <glyph glyph-name="backslash" unicode="\" horiz-adv-x="273" 
d="M223 77h50l-219 698h-53z" />
    <glyph glyph-name="bracketright" unicode="]" horiz-adv-x="284" 
d="M189 795h-194v-40h147v-885h-147v-39h194v964z" />
    <glyph glyph-name="asciicircum" unicode="^" horiz-adv-x="626" 
d="M503 295h49l-215 477h-48l-216 -477h50l189 430h2z" />
    <glyph glyph-name="underscore" unicode="_" horiz-adv-x="525" 
d="M525 11h-525v-53h525v53z" />
    <glyph glyph-name="grave" unicode="`" horiz-adv-x="315" 
d="M108 816h-78l134 -147h40z" />
    <glyph glyph-name="a" unicode="a" horiz-adv-x="422" 
d="M354 355v-164q0 -67 6 -111h-38l-6 71h-2q-19 -32 -58 -57t-90 -25q-64 0 -97.5 38.5t-33.5 86.5q0 79 67 123t202 44h8v11q0 19 -3.5 37t-13.5 43t-35.5 40t-63.5 15q-69 0 -117 -38l-13 33q59 44 134 44q154 0 154 -191zM312 226v96q-4 0 -12 0.5t-12 0.5
q-208 0 -208 -120q0 -46 25.5 -71t63.5 -25q54 0 88 27.5t50 65.5q5 12 5 26z" />
    <glyph glyph-name="b" unicode="b" horiz-adv-x="521" 
d="M75 191v566h42v-317h1q50 106 170 106q88 0 142 -67.5t54 -164.5q0 -114 -60.5 -179.5t-142.5 -65.5q-113 0 -167 99h-4v-88h-39q4 49 4 111zM117 339v-78q0 -20 4 -35q13 -50 55 -84.5t99 -34.5q77 0 122.5 56t45.5 149q0 82 -44.5 139t-118.5 57q-53 0 -96.5 -33
t-60.5 -94q-6 -22 -6 -42z" />
    <glyph glyph-name="c" unicode="c" horiz-adv-x="423" 
d="M377 139l13 -36q-61 -34 -138 -34q-96 0 -156 66t-60 166q0 111 66 178t167 67q82 0 124 -32l-16 -38q-46 30 -112 30q-88 0 -137.5 -56.5t-49.5 -142.5q0 -88 51 -143t130 -55q55 0 118 30z" />
    <glyph glyph-name="d" unicode="d" horiz-adv-x="512" 
d="M395 757h42v-566q0 -55 3 -111h-40v95h-2q-19 -46 -62 -76t-103 -30q-85 0 -141 66.5t-56 161.5v4q0 107 60 176t147 69q57 0 96 -26.5t55 -60.5h1v298zM395 272v80q0 28 -5 44q-14 49 -53 80.5t-94 31.5q-73 0 -119 -57t-46 -149q0 -82 42.5 -138.5t122.5 -56.5
q52 0 93.5 35.5t53.5 89.5q5 15 5 40z" />
    <glyph glyph-name="e" unicode="e" horiz-adv-x="457" 
d="M417 308h-340q0 -96 48.5 -147.5t124.5 -51.5q75 0 131 28l11 -37q-66 -31 -146 -31q-94 0 -152 64t-58 163q0 113 58 181.5t147 68.5q43 0 76 -16.5t51.5 -40t30.5 -54t15.5 -54t3.5 -45.5q0 -21 -1 -28zM80 344h295q0 23 -5 46.5t-18 52.5t-43.5 47t-73.5 18
q-70 0 -109 -50.5t-46 -113.5z" />
    <glyph glyph-name="f" unicode="f" horiz-adv-x="243" 
d="M117 80h-42v417h-62v37h62v22q0 120 49 172q41 41 97 41q39 0 67 -17l-13 -36q-26 14 -57 14q-101 0 -101 -173v-23h119v-37h-119v-417z" />
    <glyph glyph-name="g" unicode="g" horiz-adv-x="512" 
d="M437 425v-277q0 -149 -63 -212q-54 -55 -153 -55q-94 0 -145 44l15 37q58 -44 137 -44q78 0 122.5 47t44.5 146v66h-1q-20 -41 -62 -69t-101 -28q-84 0 -139.5 66.5t-55.5 155.5q0 109 61 176.5t144 67.5q61 0 100.5 -28.5t56.5 -67.5h4v84h38q-3 -56 -3 -109zM395 276
v76q0 30 -5 47q-16 47 -54.5 78t-90.5 31q-74 0 -120.5 -55t-46.5 -145q0 -76 42.5 -133t122.5 -57q48 0 87.5 30.5t56.5 78.5q8 22 8 49z" />
    <glyph glyph-name="h" unicode="h" horiz-adv-x="502" 
d="M75 80v677h42v-315h1q20 46 63 74q45 30 92 30q15 0 31.5 -3t41 -16t42.5 -33.5t31 -61t13 -93.5v-259h-42v258q0 73 -31 120t-97 47q-47 0 -85 -31.5t-54 -75.5q-6 -17 -6 -48v-270h-42z" />
    <glyph glyph-name="i" unicode="i" horiz-adv-x="191" 
d="M117 80h-42v454h42v-454zM95 628h-1q-14 0 -23.5 12.5t-9.5 28.5t10 28t25 12t24.5 -11.5t9.5 -28.5t-9.5 -29t-25.5 -12z" />
    <glyph glyph-name="j" unicode="j" horiz-adv-x="196" 
d="M-45 -119l-4 37q64 3 94 37q19 23 26.5 61.5t7.5 131.5v386h42v-420q0 -127 -47 -184q-21 -25 -56 -37t-63 -12zM99 628q-15 0 -24 12t-9 29q0 16 10 28t26 12q14 0 23.5 -12t9.5 -28q0 -17 -10 -29t-26 -12z" />
    <glyph glyph-name="k" unicode="k" horiz-adv-x="390" 
d="M117 757v-441h1q17 22 46 52l158 166h53l-182 -186l208 -268h-51l-186 240l-47 -49v-191h-42v677h42z" />
    <glyph glyph-name="l" unicode="l" horiz-adv-x="191" 
d="M75 80v677h42v-677h-42z" />
    <glyph glyph-name="m" unicode="m" horiz-adv-x="763" 
d="M75 80v345q0 60 -4 109h43v-87h2q51 99 147 99q46 0 80 -31t48 -77h2q17 41 43 63q47 45 111 45q14 0 30 -3.5t37.5 -17t38 -35t28.5 -62t12 -94.5v-254h-41v253q0 85 -31.5 129t-87.5 44q-41 0 -73 -27t-47 -65q-8 -24 -8 -44v-290h-42v277q0 67 -30.5 108t-81.5 41
q-43 0 -77.5 -31.5t-49.5 -73.5q-7 -17 -7 -44v-277h-42z" />
    <glyph glyph-name="n" unicode="n" horiz-adv-x="502" 
d="M75 80v345q0 60 -4 109h43v-91h2q19 45 61 74t96 29q15 0 31.5 -3t40.5 -16t42.5 -33.5t31.5 -61t13 -93.5v-259h-42v259q0 73 -31 120t-97 47q-48 0 -86 -31.5t-53 -76.5q-6 -20 -6 -41v-277h-42z" />
    <glyph glyph-name="o" unicode="o" horiz-adv-x="502" 
d="M247 69q-91 0 -151 66.5t-60 166.5q0 110 63.5 177t152.5 67q97 0 155.5 -67t58.5 -166q0 -118 -67 -181t-152 -63zM248 107h1q72 0 124 55t52 149q0 74 -45 135.5t-128 61.5q-82 0 -128 -59t-46 -143q0 -92 50 -145.5t120 -53.5z" />
    <glyph glyph-name="p" unicode="p" horiz-adv-x="521" 
d="M75 -109v497q0 81 -4 146h43v-94h3q52 106 171 106q87 0 141.5 -67t54.5 -162q0 -115 -59 -181.5t-147 -66.5q-108 0 -160 93h-1v-271h-42zM117 344v-81q0 -21 4 -36q12 -50 55 -85t99 -35q77 0 122.5 56.5t45.5 151.5q0 80 -45 136.5t-118 56.5q-53 0 -96 -32.5
t-60 -92.5q-7 -28 -7 -39z" />
    <glyph glyph-name="q" unicode="q" horiz-adv-x="510" 
d="M395 -109v277h-1q-19 -42 -61 -70.5t-101 -28.5q-84 0 -140 66.5t-56 161.5q0 123 64 186t146 63q58 0 97 -29t55 -67h4v84h38q-3 -56 -3 -109v-534h-42zM395 261v92q0 28 -5 44q-14 47 -53 79t-93 32q-74 0 -120 -55.5t-46 -148.5q0 -81 41.5 -139t121.5 -58q49 0 88 30
t57 79q9 23 9 45z" />
    <glyph glyph-name="r" unicode="r" horiz-adv-x="272" 
d="M75 80v308q0 81 -4 146h40v-98h3q17 50 49 80t75 30q13 0 21 -4v-42q-8 2 -25 2q-42 0 -72.5 -36t-40.5 -95q-4 -19 -4 -45v-246h-42z" />
    <glyph glyph-name="s" unicode="s" horiz-adv-x="347" 
d="M43 103l14 39q52 -34 102 -34q51 0 77.5 25.5t26.5 62.5q0 38 -23 61t-73 40q-111 40 -111 123q0 52 36 89t99 37q57 0 98 -31l-16 -38q-35 30 -90 30q-40 0 -63 -23.5t-23 -57.5q0 -36 22.5 -56t72.5 -38q58 -22 85 -52t27 -80q0 -57 -40 -94t-108 -37q-62 0 -113 34z
" />
    <glyph glyph-name="t" unicode="t" horiz-adv-x="288" 
d="M92 620l42 14v-100h129v-37h-129v-290q0 -98 65 -98q31 0 53 8l6 -35q-28 -13 -63 -13q-51 0 -76 35q-27 34 -27 109v284h-75v37h75v86z" />
    <glyph glyph-name="u" unicode="u" horiz-adv-x="498" 
d="M423 534v-343q0 -62 4 -111h-42v93h-1q-53 -104 -159 -104q-23 0 -45 6.5t-49 26t-43.5 65.5t-16.5 113v254h41v-244q0 -180 123 -180q45 0 82.5 27.5t53.5 68.5q11 31 11 53v275h41z" />
    <glyph glyph-name="v" unicode="v" horiz-adv-x="422" 
d="M12 534h45l107 -279q28 -77 46 -129h2q8 21 24.5 64t24.5 65l109 279h44l-186 -454h-37z" />
    <glyph glyph-name="w" unicode="w" horiz-adv-x="667" 
d="M21 534h43l75 -264q33 -123 37 -140h1q7 22 23 69.5t23 70.5l91 264h41l87 -263q11 -34 26.5 -85t17.5 -56h2q12 52 40 140l81 264h43l-149 -454h-37l-83 251q-31 90 -49 162h-1q-16 -63 -52 -163l-89 -250h-37z" />
    <glyph glyph-name="x" unicode="x" horiz-adv-x="400" 
d="M18 534h49l78 -112q30 -42 51 -76h2q16 25 53 76l79 112h46l-157 -220l165 -234h-49l-82 116q-21 30 -57 86h-2q-10 -18 -57 -86l-80 -116h-49l166 233z" />
    <glyph glyph-name="y" unicode="y" horiz-adv-x="408" 
d="M7 534h46l121 -303q20 -46 34 -95h2q19 60 33 99l114 299h45l-144 -366q-45 -113 -76.5 -169.5t-71.5 -88.5q-46 -38 -75 -41l-10 39q38 11 74 44q47 43 78 122q6 14 6 18q0 3 -6 21z" />
    <glyph glyph-name="z" unicode="z" horiz-adv-x="374" 
d="M14 80v29l244 320q35 45 53 66v1h-280v38h329v-32l-243 -319l-49 -63v-2h296v-38h-350z" />
    <glyph glyph-name="braceleft" unicode="{" horiz-adv-x="284" 
d="M23 411v-38h4q89 0 89 -82q0 -36 -10 -84q-12 -54 -12 -83q0 -79 43.5 -115.5t116.5 -36.5h14v40h-20q-106 0 -106 107q0 26 10 84q11 50 11 83q0 37 -19 67t-49 39v2q30 10 49 38.5t19 65.5q0 34 -11 83q-10 58 -10 83q0 53 24.5 79.5t81.5 26.5h20v40h-14
q-73 0 -116.5 -35t-43.5 -104q0 -29 12 -89q10 -50 10 -89q0 -37 -17.5 -59.5t-68.5 -22.5h-7z" />
    <glyph glyph-name="bar" unicode="|" horiz-adv-x="230" 
d="M137 838h-45v-1050h45v1050z" />
    <glyph glyph-name="braceright" unicode="}" horiz-adv-x="284" 
d="M260 373v38h-6q-51 0 -69 22.5t-18 59.5q0 34 11 89t11 89q0 69 -43.5 104t-116.5 35h-13v-40h20q57 0 81.5 -26.5t24.5 -79.5q0 -30 -11 -83q-10 -54 -10 -83q0 -37 18.5 -65.5t48.5 -38.5v-2q-30 -9 -48.5 -39t-18.5 -67q0 -29 10 -83q11 -53 11 -84q0 -107 -106 -107
h-20v-40h13q73 0 116.5 36.5t43.5 115.5q0 34 -11 83q-11 53 -11 84q0 82 89 82h4z" />
    <glyph glyph-name="asciitilde" unicode="~" horiz-adv-x="626" 
d="M44 241h41q0 95 75 95q17 0 37 -5t32 -9.5t40 -17t38 -16.5q112 -48 161 -48q46 0 80 32t34 97v12h-40q0 -94 -70 -94q-11 0 -21 1t-23 4.5t-20 5t-23.5 8t-21 8.5t-24.5 10.5t-23 9.5q-74 31 -100 39.5t-56 8.5q-48 0 -82 -35t-34 -94v-12z" />
    <glyph glyph-name="currency" unicode="&#xa4;" horiz-adv-x="556" 
d="M278 514h-1q-75 0 -127 -45l-68 72l-33 -33l72 -67q-49 -52 -49 -135q0 -37 12.5 -73t31.5 -55l-67 -66l31 -33l68 69q48 -41 126 -41q82 0 132 46l70 -74l32 33l-71 72q40 46 40 132q0 78 -42 125l77 68l-32 32l-74 -72q-48 45 -128 45zM273 473h1q74 0 114.5 -49.5
t40.5 -108.5q0 -88 -47 -127.5t-109 -39.5q-24 0 -49 8.5t-49 26t-39 50.5t-15 76q0 65 40.5 114.5t111.5 49.5z" />
    <glyph glyph-name="brokenbar" unicode="&#xa6;" horiz-adv-x="231" 
d="M142 830h-39v-434h39v434zM142 232h-39v-431z" />
    <glyph glyph-name="section" unicode="&#xa7;" horiz-adv-x="577" 
d="M403 662h47v5q0 169 -163 169q-30 0 -57 -6.5t-52 -20.5t-40 -41.5t-15 -64.5q0 -43 16 -71t61 -54q-144 -35 -144 -171q0 -73 45 -121t145 -88q14 -6 43 -17t41 -16t31 -15.5t26.5 -20.5t14 -25.5t6.5 -34.5q0 -49 -34.5 -73t-84.5 -24q-40 0 -68 14.5t-40 38
t-16.5 43.5t-4.5 40h-46q0 -33 7 -61.5t25 -57t54.5 -45t88.5 -16.5q82 0 125.5 40.5t43.5 103.5q0 82 -77 119q55 16 98 59t43 119q0 72 -42 113.5t-128 77.5q-17 7 -45 18.5t-39.5 16.5t-30 13.5t-25 14t-17 14t-13.5 17t-6 19.5t-3 25q0 32 14.5 53.5t37.5 29t36 9.5
t25 2q58 0 87.5 -28.5t29.5 -101.5zM330 215q-134 53 -178 89t-44 106q0 35 12.5 61.5t34 42.5t44 25t46.5 12q129 -45 176.5 -82t47.5 -104q0 -111 -139 -150z" />
    <glyph glyph-name="copyright" unicode="&#xa9;" horiz-adv-x="840" 
d="M52 467q0 -152 107 -260t261 -108q151 0 259 107.5t108 260.5q0 152 -108 259.5t-259 107.5q-154 0 -261 -107.5t-107 -259.5zM94 467q0 140 95 237.5t231 97.5q132 0 228.5 -98t96.5 -237q0 -140 -96 -238.5t-229 -98.5q-137 0 -231.5 98.5t-94.5 238.5zM575 411h-46
q-1 -13 -5.5 -27t-15 -30.5t-32.5 -27t-51 -10.5q-12 0 -23.5 1.5t-32 10t-35 23.5t-25.5 45t-11 72q0 160 122 160q96 0 104 -84h46q-1 55 -44.5 88t-105.5 33q-83 0 -126.5 -52.5t-43.5 -144.5q0 -89 46.5 -139t127.5 -50q42 0 72.5 14.5t46 38.5t22.5 42t10 37z" />
    <glyph glyph-name="guillemotleft" unicode="&#xab;" horiz-adv-x="512" 
d="M328 271l122 192h-39l-147 -192l146 -192h40zM137 271l122 192h-38l-148 -192l147 -192h39z" />
    <glyph glyph-name="logicalnot" unicode="&#xac;" horiz-adv-x="626" 
d="M584 404h-542v-42h496v-225h46v267z" />
    <glyph glyph-name="_176" unicode="&#xad;" horiz-adv-x="378" 
d="M23 295h351v44h-351v-44z" />
    <glyph glyph-name="registered" unicode="&#xae;" horiz-adv-x="840" 
d="M52 468q0 -152 108 -260t260 -108q153 0 260 108t107 260q0 153 -107 260.5t-260 107.5q-152 0 -260 -108t-108 -260zM94 468q0 139 96.5 237.5t229.5 98.5q136 0 230.5 -98t94.5 -238t-94 -238t-231 -98q-134 0 -230 98.5t-96 237.5zM286 655v-367h46v152h99q28 0 45 -5
t24 -17t9 -21t2 -26q2 -48 3.5 -61t10.5 -22h49q-4 4 -6 8.5t-3.5 8.5t-2.5 12t-1 14t-0.5 20t-0.5 24q-2 24 -4.5 36.5t-14.5 27t-34 19.5v2q62 26 62 89q0 16 -3.5 30.5t-15 33.5t-38.5 30.5t-68 11.5h-158zM332 476v142h93q96 0 96 -69q0 -37 -25.5 -55t-62.5 -18h-101z
" />
    <glyph glyph-name="macron" unicode="&#xaf;" horiz-adv-x="628" 
d="M-12 792h682v44h-682v-44z" />
    <glyph glyph-name="degree" unicode="&#xb0;" horiz-adv-x="456" 
d="M112 693q0 42 37 74t86 32q51 0 87.5 -32t36.5 -74q0 -48 -36 -78.5t-88 -30.5q-50 0 -86.5 31t-36.5 78zM86 693q0 -59 45 -99.5t104 -40.5q62 0 106.5 40.5t44.5 99.5q0 54 -45 95t-106 41q-59 0 -104 -41t-45 -95z" />
    <glyph glyph-name="plusminus" unicode="&#xb1;" horiz-adv-x="626" 
d="M336 595h-46v-217h-248v-42h248v-226h46v226h248v42h-248v217zM584 42h-542v-42h542v42z" />
    <glyph glyph-name="acute" unicode="&#xb4;" horiz-adv-x="378" 
d="M153 706h51l108 126h-92z" />
    <glyph glyph-name="paragraph" unicode="&#xb6;" horiz-adv-x="556" 
d="M277 75h45v719h79v-719h45v754q-37 7 -115 7q-68 0 -121 -14t-85 -36.5t-52.5 -53.5t-28 -61.5t-7.5 -64.5q0 -97 71 -151.5t160 -54.5h9v-325z" />
    <glyph glyph-name="periodcentered" unicode="&#xb7;" horiz-adv-x="355" 
d="M142 254h85v84h-85v-84z" />
    <glyph glyph-name="ordmasculine" unicode="&#xba;" horiz-adv-x="315" 
d="M159 720h-1q-53 0 -90 -37.5t-37 -93.5q0 -49 34.5 -84.5t89.5 -35.5q49 0 89 36t40 93q0 50 -33 86t-92 36zM155 685h1q48 0 68 -28t20 -61q0 -40 -25 -66t-63 -26q-36 0 -60.5 25t-24.5 61q0 37 21 66t63 29z" />
    <glyph glyph-name="guillemotright" unicode="&#xbb;" horiz-adv-x="512" 
d="M206 270l-122 -192h40l146 191l-146 193h-40zM396 270l-121 -192h38l145 192l-145 192h-38z" />
    <glyph glyph-name="tilde" unicode="&#x2dc;" horiz-adv-x="378" 
d="M15 734h42q11 51 67 51q23 0 68 -21q63 -29 92 -29q38 0 63.5 25t32.5 72h-38q-7 -28 -21 -38.5t-41 -10.5q-24 0 -68 18q-76 30 -93 30q-42 0 -68 -25q-24 -21 -36 -72z" />
    <glyph glyph-name="uni10D0" unicode="&#x10d0;" horiz-adv-x="400" 
d="M359 249q0 97 -90 154q-81 51 -81 100q0 7 1 11h-46q-1 -4 -1 -13q0 -56 81 -107q90 -57 90 -145q0 -71 -33 -101t-77 -30q-45 0 -82 30q-36 31 -36 89q0 48 23 75l-35 20q-32 -41 -32 -95q0 -77 46 -119q47 -41 116 -41q63 0 109 42q47 43 47 130z" />
    <glyph glyph-name="uni10D1" unicode="&#x10d1;" horiz-adv-x="415" 
d="M87 282q0 69 33 116q34 48 89 48q51 0 85 -48q35 -47 35 -116q0 -70 -36 -117q-35 -47 -85 -47q-44 0 -82 45q-39 45 -39 119zM131 825h-52v-1q0 -72 85 -130q49 -43 49 -110q0 -46 -20 -96q-68 -11 -110 -70q-42 -58 -42 -136q0 -84 47 -146q48 -59 120 -59t119 60
q47 61 47 145q0 80 -39 134t-97 71q17 51 17 100q0 81 -56 125q-69 63 -69 108v3z" />
    <glyph glyph-name="uni10D2" unicode="&#x10d2;" horiz-adv-x="465" 
d="M82 9q0 78 46 130q45 53 104 53q57 0 102 -53q47 -51 47 -130q0 -84 -43 -131q-44 -47 -110 -47q-48 0 -97 47q-49 48 -49 131zM429 9q0 85 -41 137q-42 54 -104 80q72 57 72 143q0 53 -40 90q-39 36 -100 36q-55 0 -98 -32q-41 -33 -41 -88q0 -37 27 -78l32 29
q-14 14 -14 51q0 31 25 55q26 23 69 23q44 0 69 -27q26 -28 26 -59q0 -81 -80 -139q-72 0 -140 -65q-55 -64 -55 -156q0 -90 58 -154q59 -65 134 -65q85 0 143 65q58 66 58 152v2z" />
    <glyph glyph-name="uni10D3" unicode="&#x10d3;" horiz-adv-x="628" 
d="M541 287q0 -88 -40 -129q-39 -40 -76 -40q-44 0 -80 41q-36 44 -36 123t36 121q36 43 80 43q47 0 81 -48q35 -47 35 -111zM263 282q0 -87 47 -146t115 -59t114 58q48 60 48 155q0 79 -47 138q-44 59 -115 59q-74 0 -119 -66q-50 66 -114 66q-60 0 -105 -45
q-46 -43 -46 -145q0 -207 203 -335v-4h-97v-52q69 20 121 20q47 0 88 -26q39 -27 81 -103h55q-32 97 -199 182q-97 60 -151 139q-55 82 -55 179q0 79 33 114q35 35 81 35q49 0 81 -65q-19 -51 -19 -99z" />
    <glyph glyph-name="uni10D4" unicode="&#x10d4;" horiz-adv-x="420" 
d="M369 -39v365q0 86 -44 124q-43 37 -110 37q-66 0 -105 -40q-39 -41 -39 -103q0 -66 43 -104l35 27q-37 31 -37 83q0 35 31 66q30 30 76 30q105 0 105 -120v-365q0 -64 -36 -97t-88 -33q-39 0 -80 35q-38 35 -38 96q0 59 46 102l-28 26q-64 -52 -64 -128q0 -81 50 -127
q50 -45 114 -45q68 0 118 41q51 41 51 130z" />
    <glyph glyph-name="uni10D5" unicode="&#x10d5;" horiz-adv-x="410" 
d="M369 -33v65q0 81 -92 137v8q92 54 92 154q0 72 -43 114q-44 42 -118 42q-62 0 -108 -38q-44 -39 -44 -105q0 -47 30 -86l33 29q-21 25 -21 63q0 41 33 68q32 28 78 28q48 0 81 -33t33 -81q0 -67 -30 -103q-29 -37 -57 -37h-49v-39h49q30 0 59 -39q28 -37 28 -77v-70
q0 -61 -32 -99q-31 -37 -88 -37q-43 0 -83 38q-38 38 -38 93q0 59 34 94l-16 34q-64 -49 -64 -128q0 -76 47 -123q46 -49 120 -49q166 0 166 177z" />
    <glyph glyph-name="uni10D6" unicode="&#x10d6;" horiz-adv-x="425" 
d="M293 685q0 59 -40 105t-106 46q-62 0 -102 -46t-40 -108q0 -68 46 -114q48 -45 95 -45h32q-86 -79 -106 -127q-22 -51 -22 -114q0 -88 50 -147q52 -58 116 -58q66 0 117 55q50 58 50 150q0 99 -52 152q-53 53 -115 53l-38 -4q66 63 89 101q26 44 26 101zM97 282
q0 72 29 118q28 46 90 46q53 0 86 -49q34 -47 34 -115q0 -80 -36 -122t-84 -42q-44 0 -82 42q-37 43 -37 122zM49 681q0 48 30 81t69 33q45 0 74 -34q28 -32 28 -78q0 -72 -32 -101q-32 -28 -68 -28q-29 0 -66 37q-35 35 -35 90z" />
    <glyph glyph-name="uni10D7" unicode="&#x10d7;" horiz-adv-x="649" 
d="M328 282q0 -75 -37 -119q-36 -45 -83 -45q-48 0 -84 46q-37 46 -37 118t36 117q35 47 85 47q44 0 82 -44t38 -120zM374 282q0 38 -12 80q14 27 37 55q26 29 62 29t67 -39q31 -40 31 -117q0 -133 -123 -217h55q117 81 117 216q0 88 -41 143q-42 55 -106 55q-73 0 -117 -84
q-26 44 -65 64q-38 20 -71 20q-67 0 -117 -59t-50 -146q0 -77 47 -142q46 -63 120 -63q71 0 118 62q48 61 48 143z" />
    <glyph glyph-name="uni10D8" unicode="&#x10d8;" horiz-adv-x="415" 
d="M208 487q-80 0 -123 -50q-44 -50 -44 -140q0 -99 81 -215h39q-74 127 -74 217q0 62 35 106q35 41 86 41q50 0 85 -41q35 -44 35 -106q0 -105 -74 -217h40q80 104 80 215q0 90 -44 140q-43 50 -122 50z" />
    <glyph glyph-name="uni10D9" unicode="&#x10d9;" horiz-adv-x="405" 
d="M364 -38v48q0 56 -32 108q-31 51 -95 65v9q69 26 89 55q23 31 23 72q0 101 -168 168l-5 -41q123 -57 123 -131q0 -46 -31 -76q-32 -30 -76 -30h-45v-42h44q41 0 83 -39q43 -40 43 -120v-46q0 -61 -38 -96t-82 -35q-45 0 -83 39q-37 37 -37 92q0 62 36 93l-18 35
q-64 -49 -64 -128q0 -75 46 -122q47 -50 120 -50t119 48q48 48 48 124z" />
    <glyph glyph-name="uni10DA" unicode="&#x10da;" horiz-adv-x="814" 
d="M773 314q0 168 -137 168q-86 0 -113 -89h-8q-19 99 -102 99q-87 0 -105 -99h-8q-29 89 -119 89q-70 0 -105 -53t-35 -140q0 -89 59 -174q60 -85 209 -141v-8l-150 -13l9 -53q92 28 137 36q22 4 35 4q29 0 59 -9q90 -29 158 -122h59q-80 114 -209 159q-122 40 -222 121
q-98 80 -98 199q0 83 30 119q30 34 62 34q65 0 84 -43q19 -42 19 -103v-79h45v79q1 83 18 120q17 36 68 36q54 0 68 -36q15 -37 15 -120v-79h44v77q0 59 19 105q19 43 77 43q93 0 93 -127q0 -95 -92 -213h39q97 104 97 213z" />
    <glyph glyph-name="uni10DB" unicode="&#x10db;" horiz-adv-x="426" 
d="M208 446q56 0 88 -44t32 -128q0 -69 -37 -112q-38 -44 -83 -44t-82 43q-38 42 -38 118v6q0 57 33 110q35 51 87 51zM41 282q0 -82 48 -144q48 -61 119 -61t118 59q48 58 48 140l1 366q0 94 -38 144t-113 50q-71 0 -117 -43q-44 -44 -45 -112q0 -32 21 -77l46 19
q-21 33 -23 65q2 50 33 77q32 30 85 30q54 0 82 -36q25 -32 25 -119v-215l-3 -1q-48 63 -120 63q-70 0 -118 -62q-47 -60 -49 -143z" />
    <glyph glyph-name="uni10DC" unicode="&#x10dc;" horiz-adv-x="426" 
d="M338 282q0 -75 -36 -118q-36 -46 -84 -46q-52 0 -87 47q-34 49 -34 117q0 81 32.5 122.5t89.5 41.5q40 0 79 -45q40 -44 40 -119zM385 282q0 84 -50 145q-48 60 -117 60q-65 0 -114 -61h-11v291q0 64 75 64h107q96 0 96 57h-42q0 -20 -54 -20h-94q-130 0 -130 -117v-419
q0 -87 47 -146t120 -59q71 0 119 60t48 145z" />
    <glyph glyph-name="uni10DD" unicode="&#x10dd;" horiz-adv-x="641" 
d="M299 230h40v63q0 65 30 109q26 44 75 44q45 0 77 -41q32 -43 32 -108q0 -125 -157 -215h51q153 80 153 213q0 101 -47 146q-46 46 -110 46q-91 0 -121 -104h-8q-30 104 -119 104q-154 0 -154 -192q0 -132 141 -213h49q-143 91 -143 213q0 70 31 110q32 41 77 41
q47 0 73 -44q30 -43 30 -109v-63z" />
    <glyph glyph-name="uni10DE" unicode="&#x10de;" horiz-adv-x="415" 
d="M354 604q0 78 -90 121q-90 45 -90 100h-40q0 -88 86 -121q87 -32 87 -96q0 -50 -32 -90q-31 -39 -75 -39h-39v-41h29q43 0 90 -43q48 -43 48 -128q0 -61 -35 -105q-36 -44 -85 -44q-48 0 -84 45t-36 92v2q0 53 32 86l-33 24q-46 -52 -46 -110q0 -68 49 -124
q50 -56 118 -56q73 0 119 62q47 62 47 127q0 75 -38 124q-38 46 -81 63v11q57 35 79 65q20 31 20 75z" />
    <glyph glyph-name="uni10DF" unicode="&#x10df;" horiz-adv-x="415" 
d="M364 -38v530h-51q-103 -88 -281 -101v-35h7q45 0 90 -31t45 -71q0 -33 -26 -50.5t-62 -18.5h-55v-36h55q65 0 95 24.5t30 76.5q0 92 -105 115v7q118 0 203 73h14v-483q0 -56 -37 -93.5t-88 -37.5q-53 0 -88 36q-35 37 -35 83q0 42 23 73l-22 28q-44 -42 -44 -103
q0 -71 50 -114q50 -44 116 -44q71 0 118.5 48.5t47.5 123.5z" />
    <glyph glyph-name="uni10E0" unicode="&#x10e0;" horiz-adv-x="639" 
d="M551 288q0 -122 -149 -206h50q146 72 146 206q0 96 -39 147.5t-115 51.5q-88 0 -117 -103h-10q-16 53 -42 78t-67 25q-26 0 -55 -25l-6 6q135 143 245 346h-51q-36 -80 -89 -155q-22 -30 -159 -210q-52 -68 -52 -161q0 -134 138 -205h54q-145 82 -145 205q0 76 31 117
q32 41 77 41q49 0 76 -44q29 -43 29 -102v-67h40v67q0 58 32 102q28 43 73 45q46 -2 75 -44q30 -42 30 -115z" />
    <glyph glyph-name="uni10E1" unicode="&#x10e1;" horiz-adv-x="415" 
d="M374 277q0 63 -46 110q-47 47 -47 72q0 31 29 62l-38 21q-29 -42 -29 -86q0 -43 43 -82t43 -97q0 -72 -35 -116q-34 -43 -81 -43q-49 0 -84 41q-33 41 -35 119v547h-43v-547q0 -82 45 -142q45 -59 117 -59q66 0 114 56q47 58 47 144z" />
    <glyph glyph-name="uni10E2" unicode="&#x10e2;" horiz-adv-x="535" 
d="M253 448l-10 -273h51l-10 273q69 0 120 -90q52 -92 52 -218q0 -144 -50 -227q-49 -82 -134 -82q-80 0 -135 82t-55 227q0 130 51 218q51 90 120 90zM36 140q0 -149 62 -250q63 -100 172 -100q114 0 171 101q58 100 58 249q0 168 -71 251t-144 83l10 154h-51l10 -154
q-80 0 -148 -83q-69 -84 -69 -251z" />
    <glyph glyph-name="uni10E3" unicode="&#x10e3;" horiz-adv-x="475" 
d="M423 -37v397q0 59 -29 92q-30 35 -79 35q-74 0 -86 -72h-5q-9 41 -26 56q-19 16 -31 16h-15q-20 0 -35 -28q-15 -27 -37 -27q-32 0 -36 62l-34 -17q21 -84 64 -84q29 0 44 26q20 32 34 32h9q20 0 33.5 -27t13.5 -66v-119h37v119q0 32 10 65q10 28 38 28h27q33 0 48 -26
q14 -26 14 -51v-412q0 -62 -37 -96q-40 -35 -83 -35q-56 0 -91 41q-34 41 -34 93t35 90l-15 35q-67 -55 -67 -128q0 -76 47 -125q49 -47 126 -47q74 0 117 46q43 44 43 127z" />
    <glyph glyph-name="uni10E4" unicode="&#x10e4;" horiz-adv-x="597" 
d="M299 293q0 -62 -31 -105q-29 -44 -78 -44q-48 0 -76 44q-29 42 -29 105q0 68 31 109q31 44 78 44q48 0 76 -43q29 -43 29 -110zM338 295q0 31 -15 94q37 57 87 57q48 0 70 -31q24 -30 24 -116q0 -60 -28 -98q-27 -37 -55 -37h-33v-36h33q33 0 51.5 -37.5t18.5 -102.5v-20
q0 -68 -38 -103q-37 -34 -81 -34q-62 0 -95 38q-33 39 -33 87q0 30 28 59l-26 19q-41 -34 -41 -97q0 -59 46 -104q44 -43 122 -43q65 0 115 44q50 45 50 135v22q0 99 -69 152v6q82 70 82 164q0 87 -40 130q-42 44 -95 44q-65 0 -108 -73q-49 73 -114 73q-69 0 -111 -57
t-42 -136q0 -83 43 -135q44 -53 106 -53q69 0 109 58q39 58 39 131z" />
    <glyph glyph-name="uni10E5" unicode="&#x10e5;" horiz-adv-x="431" 
d="M374 -38v863h-41v-379h-12q-50 41 -103 41q-140 0 -140 -136v-2q0 -56 50 -115l26 32q-33 33 -33 83q0 37 20 68q20 29 77 29q46 0 80 -29q33 -30 33 -82v-373q0 -58 -38 -94q-36 -37 -85 -37q-52 0 -87 42q-33 42 -33 89q0 68 36 94l-19 34q-64 -46 -64 -128
q0 -77 50 -124q49 -48 117 -48q72 0 119 45q47 47 47 127z" />
    <glyph glyph-name="uni10E6" unicode="&#x10e6;" horiz-adv-x="595" 
d="M554 320q0 74 -38 120.5t-105 46.5q-83 0 -111 -109h-5q-30 109 -126 109q-51 0 -89.5 -44.5t-38.5 -140.5q0 -154 177 -294v-6l-98 -14l3 -57q73 36 126 36q9 0 13 -1q93 -30 143 -152h54q-50 127 -193 207q-82 50 -125 121q-54 93 -54 160q3 144 92 144
q46 0 72.5 -45.5t27.5 -113.5v-75h37v75q0 66 27 112.5t68 46.5q40 0 67.5 -33.5t27.5 -94.5q0 -104 -69 -189h30q87 90 87 191z" />
    <glyph glyph-name="uni10E7" unicode="&#x10e7;" horiz-adv-x="420" 
d="M369 -38v521h-43v-186q0 -55 -35 -92q-35 -36 -83 -36q-46 0 -79 39q-34 40 -34 99q0 50 19 88q17 35 73 95h-46q-90 -64 -90 -182q0 -86 40.5 -130.5t116.5 -44.5q58 0 110 55h8v-226q0 -64 -37 -98q-36 -33 -86 -33q-38 0 -81 38q-43 39 -43 93q0 50 21 90l-23 15
q-41 -47 -41 -105q0 -83 51 -128q50 -44 116 -44q72 0 119 44q47 43 47 128z" />
    <glyph glyph-name="uni10E8" unicode="&#x10e8;" horiz-adv-x="453" 
d="M117 282q0 83 34 123q35 41 83 41t86 -44t38 -120q0 -77 -40 -120q-39 -44 -84 -44q-48 0 -83 39q-34 38 -34 125zM401 282v419q0 135 -117 135q-53 0 -81 -70h-5q-24 70 -85 70q-103 0 -103 -110v-104h40v101q0 36 13 56q13 21 57 21q35 0 49 -29q12 -27 12 -74v-113h39
v113q0 103 68 103q40 0 55 -22t15 -76v-271h-8q-61 56 -115 56q-67 0 -118 -57q-49 -57 -49 -145v-3q0 -82 45 -144q45 -61 122 -61q70 0 118 59q48 58 48 146z" />
    <glyph glyph-name="uni10E9" unicode="&#x10e9;" horiz-adv-x="426" 
d="M239 584l25 -15q51 69 51 145q0 55 -35 87q-35 35 -96 35q-133 0 -133 -183v-566h44v222q0 63 37 100q36 37 86 37q52 0 85 -41t33 -96q0 -124 -103 -227h51q101 110 101 228q0 74 -45 125q-43 52 -122 52q-62 0 -113 -61h-10v224q0 145 86 145q40 0 67 -27
q25 -26 25 -54q0 -69 -34 -130z" />
    <glyph glyph-name="uni10EA" unicode="&#x10ea;" horiz-adv-x="484" 
d="M434 308q0 59 -62 91q-62 31 -62 74h-43q0 -57 59 -91q59 -35 59 -73q0 -48 -28 -76t-64 -28h-61v-47h61q37 0 73 -36q34 -38 34 -103q0 -78 -38 -132q-38 -56 -106 -56q-89 0 -130 89q-41 86 -41 224q0 182 66 324h-46q-69 -147 -69 -323q0 -169 57 -262q59 -93 159 -93
q92 0 144 63q53 64 53 165q0 129 -103 164v5q88 48 88 121z" />
    <glyph glyph-name="uni10EB" unicode="&#x10eb;" horiz-adv-x="426" 
d="M329 282q0 -67 -35 -116q-34 -48 -86 -48q-46 0 -83 48q-37 47 -37 115q0 65 34 115q35 50 85 50q51 0 86 -47q36 -47 36 -117zM374 282v543h-45v-394h-9q-50 56 -113 56t-115 -57q-51 -57 -51 -148q0 -80 47 -144q46 -61 119 -61t120 60q47 62 47 145z" />
    <glyph glyph-name="uni10EC" unicode="&#x10ec;" horiz-adv-x="433" 
d="M342 316q0 -93 -71 -214q-71 -120 -99 -229h-5q-4 174 -31 284q-25 101 -25 169v4q0 3 -0.5 8.5t-0.5 8.5q0 46 27 70q32 29 88 29q49 0 83 -32q34 -31 34 -98zM391 319q0 73 -43 121q-44 47 -124 47q-72 0 -125 -63h-5q-8 80 -10 113q-6 68 -6 130v7q0 77 16 100
q18 26 49 26q39 0 51 -26q14 -26 14 -83v-86h37v85q0 110 56 110q29 0 46 -20q17 -19 17 -76v-81h38v82q0 68 -23 99.5t-73 31.5q-56 0 -78 -63q-29 63 -83 63q-60 0 -87 -40.5t-27 -126.5v-3q5 -135 39 -381q26 -152 41 -228q23 -115 23 -254h46q0 63 106 236
q105 175 105 280z" />
    <glyph glyph-name="uni10ED" unicode="&#x10ed;" horiz-adv-x="400" 
d="M235 373v-24q-58 -67 -87 -67q-70 0 -70 78q0 81 70 81q28 0 87 -68zM354 228l25 61q-35 12 -61 27q-6 4 -27.5 17.5t-36.5 23.5v7q74 41 125 53l-25 61q-25 -35 -47 -51q-6 -4 -22 -15.5t-25 -18.5h-8q30 143 30 196q0 84 -57 115q-57 30 -57 123h-45q0 -109 60 -144
q58 -34 58 -93v-3q0 -77 -18 -151h-5q-54 42 -71 42h-1q-104 0 -104 -115v-3q0 -116 104 -116h2q16 0 63 39h5v-18q6 -73 58 -153q52 -77 52 -150q0 -51 -32 -91q-31 -40 -86 -40q-50 0 -84 37q-34 35 -34 94q0 62 34 93l-19 35q-64 -46 -64 -128q0 -76 46 -123
q45 -49 121 -49q73 0 120 47q46 47 46 125q0 80 -59 169q-59 92 -65 164v29h9q56 -40 95 -96z" />
    <glyph glyph-name="uni10EE" unicode="&#x10ee;" horiz-adv-x="426" 
d="M97 282q0 65 35 114q34 50 86 50q50 0 86 -50q34 -50 34 -114q0 -69 -36 -117q-36 -47 -83 -47t-84 46q-38 46 -38 118zM51 825v-542q0 -92 49 -150q50 -56 118 -56q70 0 118 60q49 61 49 145q0 85 -49 146q-48 59 -117 59t-119 -66h-6v404h-43z" />
    <glyph glyph-name="uni10EF" unicode="&#x10ef;" horiz-adv-x="370" 
d="M350 160l-128 91l36 55q51 81 51 127q0 83 -84 85q-88 0 -88 -78h38q1 42 49 42q44 0 44 -44q0 -36 -56 -122l-25 -39l-144 99l-22 -34l143 -99l-103 -159l38 -27q85 -22 85 -93q0 -97 -140 -133v-41q185 36 185 175v1q0 93 -116 120l86 132l128 -90z" />
    <glyph glyph-name="uni10F0" unicode="&#x10f0;" horiz-adv-x="415" 
d="M374 237q0 76 -77 144q61 22 61 97q0 48 -69 95q51 36 51 95q0 73 -86 97q-87 25 -87 71h-43q0 -67 86 -96q85 -28 85 -73q0 -43 -19 -59q-13 -14 -29 -14q-6 0 -9 1q-35 19 -93 25v-35q168 -45 168 -115q0 -31 -19 -49q-14 -11 -25 -11q-7 0 -13 3q-45 22 -110 33v-34
q180 -57 180 -177q0 -45 -33 -81t-85 -37q-56 0 -88 43q-30 44 -30 70q0 42 12 69l-39 19q-22 -47 -22 -87q0 -54 43 -104q42 -50 123 -50q79 0 123 48q44 49 44 112z" />
    <glyph glyph-name="uni10F1" unicode="&#x10f1;" horiz-adv-x="436" 
d="M105 825q-54 -114 -54 -282v-260q0 -99 46 -152.5t137 -53.5q55 0 102 28q49 29 49 99q0 61 -95 87q89 24 89 81t-94 79q89 24 89 82q0 56 -89 80q84 24 84 87q0 33 -37 60t-37 65h-38q0 -39 35 -65t35 -63q0 -69 -96 -69h-25v-32h25q101 0 101 -63q0 -65 -96 -65h-30
v-32h30q101 0 101 -65q0 -64 -96 -64h-35v-31h35q101 0 101 -71q0 -39 -34 -63t-74 -24q-74 0 -107 43q-32 46 -32 121v258q0 192 56 285h-46z" />
    <glyph glyph-name="uni10F2" unicode="&#x10f2;" horiz-adv-x="436" 
d="M97 305q0 59 34 101q33 40 87 40t87 -40t33 -102q0 -66 -33 -109q-33 -40 -87 -68q-53 27 -87 69q-32 43 -34 109zM51 74v-46h2q62 0 166 67q101 -67 166 -67v46q-93 0 -124 39q124 88 124 191q0 84 -50 134q-50 49 -117 49q-69 0 -118 -49q-49 -51 -49 -134
q0 -103 124 -190q-31 -40 -124 -40z" />
    <glyph glyph-name="uni10F3" unicode="&#x10f3;" horiz-adv-x="436" 
d="M385 -38v67q0 68 -29 105q-29 38 -103 53v5q132 62 132 285h-318v-164h38v128h231q0 -129 -42 -181q-43 -52 -95 -52h-40v-39h41q58 0 97 -37q39 -38 39 -103v-67q0 -47 -32 -90q-32 -41 -86 -41q-52 0 -86 40q-34 38 -34 91q0 64 32 94l-15 34q-64 -52 -64 -128
q0 -74 49 -123q50 -49 118 -49q71 0 118 50q49 51 49 122z" />
    <glyph glyph-name="uni10F4" unicode="&#x10f4;" horiz-adv-x="436" 
d="M385 -38v80q0 64 -22 108q-22 43 -91 67v5q68 20 90 81q23 64 23 162v83q-81 -84 -158 -84q-47 0 -89 45q-41 46 -41 106q0 67 51 113t101 46v41q-83 0 -140 -61q-58 -61 -58 -146q0 -77 49 -132q48 -55 128 -55q28 0 108 22q0 -119 -35 -163q-35 -41 -73 -41h-58v-39h58
q40 0 73 -40q35 -38 35 -118v-80q0 -62 -35 -96q-35 -35 -83 -35q-50 0 -85 36q-35 37 -35 95q0 64 34 91l-17 37q-64 -46 -64 -128q0 -74 50 -122q49 -50 117 -50q64 0 116 45q51 46 51 127z" />
    <glyph glyph-name="uni10F5" unicode="&#x10f5;" horiz-adv-x="487" 
d="M98 680q0 56 35 85q35 30 85 30q51 0 87 -38q36 -37 36 -84v-113h-87q-87 0 -122 29q-34 28 -34 91zM341 367v-121q0 -48 -36 -88t-87 -40t-85 33q-35 33 -35 91q0 57 34 91t117 34h92zM385 367h51v44h-51v106h51v43h-51v113q0 77 -47 121q-45 42 -120 42q-80 0 -123 -45
q-44 -44 -44 -111q0 -77 46 -120q48 -43 156 -43h88v-106h-91q-106 0 -153 -47q-46 -51 -46 -122q0 -66 42 -116q40 -49 125 -49q65 0 116 42q51 43 51 129v119z" />
    <glyph glyph-name="uni10F6" unicode="&#x10f6;" horiz-adv-x="641" 
d="M539 282q0 -73 -27 -118q-27 -46 -66 -46q-46 0 -75 35q-28 35 -28 86v80q0 54 27 90q28 37 74 37q41 0 68 -46q27 -47 27 -118zM206 487q-77 0 -115 -59q-40 -60 -40 -144q0 -82 43 -146q42 -61 103 -61v41q-35 0 -68 47q-32 49 -32 117q0 73 32 119q31 45 75 45
q42 0 67 -37q26 -37 26 -90v-327q0 -98 -29 -130q-30 -31 -50 -31v-41q55 0 89 43q36 45 36 161v135q46 -52 101 -52q61 0 103 60q43 63 43 145q0 84 -43 145q-42 60 -105 60q-76 0 -116 -84h-6q-36 84 -114 84z" />
    <glyph glyph-name="uni10F7" unicode="&#x10f7;" horiz-adv-x="479" 
d="M351 125l-15 -41q44 -36 44 -113q0 -50 -36 -95q-38 -45 -100 -45q-72 0 -108 47q-36 48 -36 108q0 99 133 186q133 89 133 196q0 54 -32 95t-98 41q-71 0 -105 -40q-33 -39 -33 -87q0 -51 34 -91l27 40q-21 16 -21 55q0 25 24 52q24 28 69 28q51 0 72 -31q21 -32 21 -62
q0 -92 -136 -178q-137 -84 -137 -203q0 -84 51 -141q51 -56 142 -56q80 0 132 52t52 128q0 90 -77 155z" />
    <glyph glyph-name="uni10F8" unicode="&#x10f8;" horiz-adv-x="436" 
d="M51 483v-521q0 -84 46 -128q49 -44 121 -44q64 0 116 44q51 45 51 128q0 58 -41 105l-24 -15q21 -38 21 -90q0 -54 -43 -93q-43 -38 -80 -38q-51 0 -87 33t-36 98v226h4q41 -55 113 -55q76 0 116.5 44.5t40.5 130.5q0 119 -90 182h-46q53 -55 74 -95q18 -36 18 -88
q0 -62 -34 -99q-33 -39 -78 -39q-65 0 -91 41q-27 40 -27 97v176h-44z" />
    <glyph glyph-name="uni10F9" unicode="&#x10f9;" horiz-adv-x="495" 
d="M398 276q0 -76 -46 -130q-45 -53 -104 -53q-56 0 -102 58q-46 61 -46 125q0 70 43 123q42 55 109 55q48 0 97 -47q49 -49 49 -131zM51 276q0 -83 40 -138q40 -52 105 -79q-72 -57 -72 -143q0 -54 40 -90q39 -36 100 -36q56 0 97 32q42 33 42 88q0 39 -27 78l-32 -29
q14 -14 14 -51q0 -31 -25 -55q-26 -23 -69 -23q-41 0 -70 27q-25 26 -25 59q0 81 80 139q85 0 140 65t55 156t-59 154q-58 65 -133 65q-84 0 -143 -66q-58 -67 -58 -153z" />
    <glyph glyph-name="uni10FA" unicode="&#x10fa;" horiz-adv-x="436" 
d="M315 -2l38 27q-64 80 -160 135q-96 56 -96 156q0 59 34 95q33 35 83 35q54 0 90 -33q34 -33 34 -89q0 -52 -27 -83l27 -24q47 45 47 108q0 75 -46 119q-44 43 -125 43q-75 0 -119 -47t-44 -123q0 -115 127 -199q-63 -32 -81 -72l30 -21q41 65 91 65q52 0 97 -92z" />
    <glyph glyph-name="uni10FB" unicode="&#x10fb;" horiz-adv-x="417" 
d="M51 153v-82h81v82h-81zM51 496v-81h81v81h-81zM285 322v-81h81v81h-81z" />
    <glyph glyph-name="uni10FC" unicode="&#x10fc;" horiz-adv-x="255" 
d="M177 574q0 -52 -18 -81t-49 -29q-30 0 -48 28t-18 78q1 47 17.5 73.5t45.5 26.5q32 0 51 -25.5t19 -70.5zM112 705q-39 0 -68 -38v85q0 20 11.5 33t28.5 13l132 -1v37h-121q-92 0 -92 -92v-169q0 -145 107 -145t107 146q0 59 -27 95t-78 36z" />
    <glyph glyph-name="figuredash" unicode="&#x2012;" horiz-adv-x="633" 
d="M663 272v54h-663v-54h663z" />
    <glyph glyph-name="endash" unicode="&#x2013;" horiz-adv-x="633" 
d="M-7 257h652v50h-652v-50z" />
    <glyph glyph-name="emdash" unicode="&#x2014;" horiz-adv-x="1137" 
d="M-12 256h1197v51h-1197v-51z" />
    <glyph glyph-name="quoteleft" unicode="&#x2018;" horiz-adv-x="257" 
d="M184 820l-17 17q-44 -41 -69 -92t-25 -100q0 -73 55 -73q19 0 33.5 12.5t14.5 36.5q0 19 -13 29.5t-32 10.5h-5q-7 0 -9 -1q-2 18 -2 24q0 60 69 136z" />
    <glyph glyph-name="quoteright" unicode="&#x2019;" horiz-adv-x="257" 
d="M73 589l17 -17q44 41 69 91.5t25 99.5q0 74 -55 74q-19 0 -33.5 -13t-14.5 -37q0 -18 13 -28.5t32 -10.5h5q7 0 8 1q3 -13 3 -25q0 -57 -69 -135z" />
    <glyph glyph-name="quotesinglbase" unicode="&#x201a;" horiz-adv-x="257" 
d="M73 -83l17 -17q44 41 69 91.5t25 99.5q0 74 -55 74q-19 0 -33.5 -13t-14.5 -37q0 -18 13 -29t32 -11h5q2 0 5 1h3q3 -12 3 -24q0 -58 -69 -135z" />
    <glyph glyph-name="quotedblleft" unicode="&#x201c;" horiz-adv-x="411" 
d="M337 820l-17 17q-44 -41 -68.5 -92t-24.5 -100q0 -73 54 -73q19 0 34 12.5t15 36.5q0 19 -13 29.5t-32 10.5h-6q-6 0 -8 -1q-2 18 -2 24q0 60 68 136zM184 820l-17 17q-44 -41 -69 -92t-25 -100q0 -73 55 -73q19 0 33.5 12.5t14.5 36.5q0 19 -13 29.5t-32 10.5h-5
q-7 0 -9 -1q-2 18 -2 24q0 60 69 136z" />
    <glyph glyph-name="quotedblright" unicode="&#x201d;" horiz-adv-x="411" 
d="M73 589l17 -17q44 41 69 91.5t25 99.5q0 74 -55 74q-19 0 -33.5 -13t-14.5 -37q0 -18 13 -28.5t32 -10.5h5q7 0 8 1q3 -13 3 -25q0 -57 -69 -135zM227 589l17 -17q43 40 68 91t25 100q0 74 -54 74q-19 0 -33.5 -13t-14.5 -37q0 -18 13 -28.5t32 -10.5h5q7 0 8 1
q2 -9 2 -25q0 -56 -68 -135z" />
    <glyph glyph-name="quotedblbase" unicode="&#x201e;" horiz-adv-x="411" 
d="M73 -83l17 -17q44 41 69 91.5t25 99.5q0 74 -55 74q-19 0 -33.5 -13t-14.5 -37q0 -18 13 -29t32 -11h5q2 0 5 1h3q3 -12 3 -24q0 -58 -69 -135zM227 -83l17 -17q43 40 68 91t25 100q0 74 -54 74q-19 0 -33.5 -13t-14.5 -37q0 -18 13 -29t32 -11h5q2 0 5 1h3q2 -8 2 -24
q0 -57 -68 -135z" />
    <glyph glyph-name="dagger" unicode="&#x2020;" horiz-adv-x="556" 
d="M304 708h-47v-229l-199 -51v-42l195 51v-489h46v485l200 -52v42l-195 52v233z" />
    <glyph glyph-name="bullet" unicode="&#x2022;" horiz-adv-x="525" 
d="M178 368q0 -35 24.5 -59.5t59.5 -24.5t60 24.5t25 59.5t-25 59.5t-60 24.5q-34 0 -59 -25t-25 -59z" />
    <glyph glyph-name="ellipsis" unicode="&#x2026;" horiz-adv-x="951" 
d="M173 79h84v82h-84v-82zM447 79h86v82h-86v-82zM723 79h86v82h-86v-82z" />
    <glyph glyph-name="guilsinglleft" unicode="&#x2039;" horiz-adv-x="378" 
d="M145 313l154 238h-50l-179 -238l179 -235h49z" />
    <glyph glyph-name="guilsinglright" unicode="&#x203a;" horiz-adv-x="378" 
d="M233 316l-154 -238h49l173 240l-173 233h-49z" />
    <glyph glyph-name="Euro" unicode="&#x20ac;" horiz-adv-x="556" 
d="M547 128l-14 36q-71 -43 -150 -43q-103 0 -171 68q-64 61 -79 172h361v39h-364v18q0 28 3 55h361v39h-355q21 109 85 168q69 63 165 63q75 0 133 -35l16 40q-62 37 -145 37q-122 0 -207 -82q-78 -73 -98 -191h-74v-39h68q-3 -29 -3 -59v-14h-65v-39h68q16 -127 91 -202
q84 -82 205 -82q100 0 169 51z" />
    <glyph glyph-name="trademark" unicode="&#x2122;" horiz-adv-x="668" 
d="M615 509h42l-27 286h-58l-73 -187q-3 -7 -9.5 -27t-10.5 -31h-2q-9 28 -21 60l-74 185h-57l-26 -286h40l15 194q2 44 2 61h2q14 -36 23 -63l73 -188h45l71 183l6 18l7 18q2 5 4.5 11t4.5 12.5t3 8.5h2q2 -38 3 -61zM286 795h-249v-34h105v-252h38v252h106v34z" />
    <glyph glyph-name="ring" horiz-adv-x="395" 
d="M102 733q0 -44 30 -74.5t77 -30.5q42 0 73.5 31t31.5 73q0 41 -31.5 71t-74.5 30q-44 0 -75 -30t-31 -70zM140 733q0 25 18 43t51 18q32 0 49 -18.5t17 -43.5t-16 -44.5t-46 -19.5q-37 0 -54 19.5t-19 45.5z" />
  </font>
</defs>
</svg>
